<?xml version="1.0" encoding="iso-8859-1"?>
<!-- Uploaded to: SVG Repo, www.svgrepo.com, Generator: SVG Repo Mixer Tools -->
<svg height="800px" width="800px" version="1.1" id="Layer_1" xmlns="http://www.w3.org/2000/svg" xmlns:xlink="http://www.w3.org/1999/xlink" 
	 viewBox="0 0 512.64 512.64" xml:space="preserve">
<g transform="translate(0 1)">
	<g>
		<path style="fill:#FFE100;" d="M504.107,328.144h-486.4l-8.533,25.6c0,0,6.827,17.067,69.12,17.067h374.613
			C452.907,370.811,504.107,367.397,504.107,328.144"/>
		<path style="fill:#FFE100;" d="M400,258.171c-11.093-2.56-31.573-13.653-54.613-29.013l-17.92,17.92
			c-6.827,6.827-17.067,6.827-23.893,0c-6.827-6.827-6.827-17.067,0-23.893l12.8-13.653c-8.533-5.973-17.92-11.947-26.453-18.773
			l-13.653,13.653c-6.827,6.827-17.067,6.827-23.893,0s-6.827-17.067,0-23.893l10.24-10.24c-15.36-11.093-28.16-21.333-35.84-27.307
			c-5.12-3.413-11.947-3.413-16.213,0.853l-17.92,17.92c-5.12,5.12-5.12,13.653,0,18.773l4.267,5.12
			c5.973,5.973,4.267,16.213-3.413,19.627c-84.48,35.84-123.733-34.133-123.733-34.133c-28.16-5.12-52.053,157.013-52.053,157.013
			h486.4C504.107,264.144,436.693,265.851,400,258.171"/>
		<path style="fill:#FFE100;" d="M252.373,204.411L252.373,204.411c-6.827-6.827-6.827-17.067,0-23.893l17.92-17.92
			c6.827-6.827,17.067-6.827,23.893,0l0,0c6.827,6.827,6.827,17.067,0,23.893l-17.92,17.92
			C269.44,211.237,258.347,211.237,252.373,204.411"/>
		<path style="fill:#FFE100;" d="M303.573,246.224L303.573,246.224c-6.827-6.827-6.827-17.067,0-23.893l17.92-17.92
			c6.827-6.827,17.067-6.827,23.893,0l0,0c6.827,6.827,6.827,17.067,0,23.893l-17.92,17.92
			C320.64,253.051,309.547,253.051,303.573,246.224"/>
	</g>
	<path style="fill:#00DA6C;" d="M30.507,259.877c-7.68,34.987-12.8,68.267-12.8,68.267h40.107c1.707-5.12,2.56-11.093,2.56-17.067
		C60.373,288.891,48.427,270.117,30.507,259.877"/>
	<path style="fill:#FDCC00;" d="M345.387,228.304l-17.067,17.067c-5.973,5.973-15.36,7.68-22.187,2.56
		c-8.533-5.973-9.387-18.773-2.56-25.6l12.8-12.8c-8.533-5.973-17.92-11.947-26.453-18.773l-13.653,13.653
		c-5.973,5.973-15.36,7.68-22.187,2.56c-8.533-5.973-9.387-18.773-2.56-25.6l10.24-10.24c-15.36-11.093-28.16-21.333-35.84-27.307
		c-5.12-3.413-11.947-3.413-16.213,0.853l-17.92,17.92c-5.12,5.12-5.12,13.653,0,18.773l5.12,4.267
		c5.973,5.973,4.267,16.213-3.413,18.773c-1.707,0.853-4.267,1.707-5.973,2.56l0.853,1.707l0,0
		c13.653,8.533,15.36,27.307,3.413,39.253l-80.213,80.213h110.933l44.373-44.373c8.533-8.533,23.04-10.24,33.28-2.56l0,0
		c9.387,6.827,23.04,6.827,31.573-0.853l40.107-34.987C364.16,240.251,354.773,235.131,345.387,228.304"/>
	<g>
		<path style="fill:#FFA800;" d="M478.507,328.144c0,39.253-51.2,42.667-51.2,42.667h25.6c0,0,51.2-3.413,51.2-42.667H478.507z"/>
		<path style="fill:#FFA800;" d="M374.4,258.171c36.693,7.68,104.107,5.973,104.107,69.973h25.6c0-64-67.413-62.293-104.107-69.973
			H374.4z"/>
	</g>
	<g>
		<path style="fill:#FFFFFF;" d="M31.36,353.744l8.533-25.6h-25.6l-8.533,25.6c0,0,6.827,17.067,69.12,17.067h25.6
			C38.187,370.811,31.36,353.744,31.36,353.744"/>
		<path style="fill:#FFFFFF;" d="M67.2,171.131c-28.16-5.12-52.053,157.013-52.053,157.013h25.6c0,0,15.36-105.813,36.693-144.213
			C70.613,177.104,67.2,171.131,67.2,171.131"/>
	</g>
	<path d="M452.907,379.344H78.293c-64,0-75.093-17.92-77.653-23.04c-0.853-1.707-0.853-4.267,0-5.973l8.533-25.6
		c1.707-2.56,5.12-5.12,8.533-5.12h486.4c5.12,0,8.533,3.413,8.533,8.533C512.64,365.691,474.24,377.637,452.907,379.344
		L452.907,379.344z M18.56,351.184c5.12,3.413,19.627,11.093,59.733,11.093h374.613c3.413,0,34.987-3.413,41.813-25.6H23.68
		L18.56,351.184z"/>
	<path d="M264.32,218.064c-6.827,0-13.653-2.56-17.92-7.68c-10.24-10.24-10.24-26.453,0-35.84l17.92-17.92
		c9.387-9.387,26.453-9.387,35.84,0c5.12,4.267,7.68,11.093,7.68,17.92c0,6.827-2.56,13.653-7.68,17.92l-17.92,17.92
		C277.12,215.504,271.147,218.064,264.32,218.064z M282.24,166.011c-2.56,0-4.267,0.853-5.973,2.56l-17.92,17.92
		c-3.413,3.413-3.413,8.533,0,11.947c3.413,3.413,8.533,3.413,11.947,0l17.92-17.92c1.707-1.707,2.56-3.413,2.56-5.973
		s-0.853-4.267-2.56-5.973S284.8,166.011,282.24,166.011z"/>
	<path d="M315.52,259.877c-6.827,0-13.653-2.56-17.92-7.68c-5.12-5.12-7.68-11.093-7.68-17.92c0-6.827,2.56-13.653,7.68-17.92
		l17.92-17.92c9.387-9.387,26.453-9.387,35.84,0c5.12,4.267,7.68,11.093,7.68,17.92c0,6.827-2.56,13.653-7.68,17.92l-17.92,17.92
		C328.32,257.317,322.347,259.877,315.52,259.877z M333.44,207.824c-2.56,0-4.267,0.853-5.973,2.56l-17.92,17.92
		c-1.707,1.707-2.56,3.413-2.56,5.973s0.853,4.267,2.56,5.973c3.413,3.413,8.533,3.413,11.947,0l17.92-17.92
		c1.707-1.707,2.56-4.267,2.56-5.973c0-2.56-0.853-4.267-2.56-5.973S336,207.824,333.44,207.824z"/>
	<path d="M222.507,336.677H111.573c-3.413,0-6.827-1.707-7.68-5.12c-0.853-3.413-0.853-6.827,1.707-9.387l81.067-80.213
		c3.413-3.413,5.12-8.533,5.12-13.653c-0.853-5.12-3.413-9.387-7.68-11.947c-0.853-0.853-1.707-1.707-2.56-2.56l-1.707-1.707
		c-1.707-2.56-1.707-5.12-0.853-7.68c0.853-2.56,2.56-4.267,5.12-5.12c1.707-0.853,3.413-1.707,5.973-2.56
		c1.707-0.853,1.707-1.707,1.707-2.56s0-1.707-0.853-2.56l-5.12-5.12c-8.533-8.533-8.533-22.187,0-30.72l17.92-17.92
		c6.827-6.827,19.627-7.68,27.307-1.707s20.48,16.213,35.84,27.307c1.707,1.707,3.413,3.413,3.413,5.973s0,5.12-1.707,6.827
		l-10.24,10.24c-1.707,1.707-2.56,4.267-2.56,6.827s1.707,5.12,3.413,5.973s3.413,1.707,4.267,1.707c2.56,0,5.12-0.853,6.827-3.413
		l13.653-13.653c2.56-2.56,7.68-3.413,11.093-0.853c8.533,5.973,17.067,11.947,25.6,18.773c2.56,1.707,4.267,4.267,4.267,6.827
		s-0.853,5.12-2.56,6.827l-12.8,12.8c-1.707,1.707-2.56,4.267-2.56,6.827s1.707,5.12,3.413,5.973
		c3.413,2.56,8.533,1.707,11.947-1.707l17.067-17.067c2.56-2.56,7.68-3.413,11.093-0.853c10.24,6.827,18.773,11.947,26.453,16.213
		c2.56,1.707,4.267,3.413,4.267,6.827c0,2.56-0.853,5.12-2.56,7.68l-40.107,34.987c-11.947,10.24-29.867,11.093-42.667,1.707
		c-6.827-5.12-16.213-4.267-22.187,1.707l-44.373,44.373C226.773,335.824,225.067,336.677,222.507,336.677z M132.053,319.611h87.04
		l41.813-41.813c11.947-11.947,30.72-12.8,44.373-3.413c6.827,5.12,15.36,4.267,21.333-0.853l31.573-27.307
		c-3.413-2.56-7.68-4.267-11.093-6.827l-12.8,11.947c-8.533,8.533-23.893,10.24-33.28,3.413c-5.973-4.267-10.24-11.093-10.24-18.773
		c-0.853-7.68,1.707-14.507,7.68-20.48l5.973-5.973c-4.267-2.56-7.68-5.973-11.947-8.533l-8.533,8.533
		c-8.533,8.533-23.893,10.24-33.28,3.413c-7.68-4.267-11.093-11.093-11.947-17.92c-0.853-6.827,1.707-14.507,7.68-20.48l3.413-3.413
		c-11.947-8.533-21.333-16.213-28.16-21.333c-2.56-1.707-4.267-0.853-5.12,0l-17.92,17.92c-1.707,1.707-1.707,5.12,0,6.827
		l5.12,5.12c5.12,5.12,6.827,11.947,5.973,17.92c-0.853,5.12-3.413,9.387-7.68,11.947c3.413,5.12,5.973,10.24,5.973,17.067
		c0.853,10.24-2.56,19.627-9.387,27.307L132.053,319.611z"/>
	<path d="M504.107,336.677h-486.4c-2.56,0-5.12-0.853-6.827-2.56c-0.853-2.56-1.707-5.12-1.707-6.827
		c9.387-61.44,29.013-164.693,59.733-164.693c0.853,0,1.707,0,2.56,0c2.56,0.853,4.267,1.707,5.973,4.267
		c0.853,1.707,23.04,39.253,69.973,39.253l0,0c13.653,0,28.16-3.413,42.667-9.387c0.853-0.853,1.707-1.707,1.707-2.56
		s0-1.707-0.853-3.413l-5.12-5.12c-8.533-8.533-8.533-22.187,0-30.72l17.92-17.92c6.827-6.827,19.627-7.68,27.307-1.707
		s20.48,16.213,35.84,27.307c1.707,1.707,3.413,3.413,3.413,5.973s-0.853,5.12-2.56,6.827l-10.24,10.24
		c-1.707,1.707-2.56,3.413-2.56,5.973s0.853,4.267,2.56,5.973c3.413,3.413,8.533,3.413,11.947,0l13.653-13.653
		c2.56-2.56,7.68-3.413,11.093-0.853c8.533,5.973,17.067,11.947,25.6,18.773c3.413,1.707,5.12,4.267,5.12,6.827
		s-0.853,5.12-2.56,6.827l-12.8,12.8c-1.707,1.707-2.56,3.413-2.56,5.973c0,2.56,0.853,4.267,2.56,5.973
		c3.413,3.413,8.533,3.413,11.947,0l17.92-17.92c2.56-2.56,7.68-3.413,11.093-0.853c32.427,20.48,46.08,26.453,52.053,28.16
		c5.973,0.853,11.947,2.56,18.773,3.413c35.84,5.12,91.307,14.507,91.307,75.093C512.64,333.264,509.227,336.677,504.107,336.677z
		 M27.947,319.611h467.627c-4.267-35.84-35.84-43.52-76.8-49.493c-6.827-0.853-13.653-2.56-19.627-3.413
		c-10.24-2.56-27.307-11.093-52.053-26.453l-13.653,11.947c-9.387,9.387-26.453,9.387-35.84,0c-5.12-5.12-7.68-11.093-7.68-17.92
		c0-6.827,2.56-13.653,7.68-17.92l5.973-5.973c-4.267-2.56-7.68-5.973-11.947-8.533l-8.533,8.533c-9.387,9.387-26.453,9.387-35.84,0
		c-10.24-10.24-10.24-26.453,0-35.84l3.413-3.413c-11.947-8.533-22.187-16.213-28.16-21.333c-2.56-1.707-4.267-0.853-5.12,0
		l-17.92,17.92c-1.707,1.707-1.707,5.12,0,6.827l5.12,5.12c5.12,5.12,6.827,11.947,5.973,18.773
		c-0.853,6.827-5.973,11.947-11.947,14.507c-17.067,7.68-34.133,11.093-49.493,11.093l0,0c-45.227,0-71.68-29.867-81.067-42.667
		C55.253,191.611,38.187,252.197,27.947,319.611z"/>
	<path d="M57.813,336.677H17.707c-2.56,0-5.12-0.853-6.827-2.56s-1.707-5.12-1.707-6.827c0,0,5.12-33.28,12.8-69.12
		c0.853-2.56,2.56-5.12,5.12-5.973c2.56-0.853,5.12-0.853,7.68,0.853c21.333,11.947,34.133,34.987,34.133,58.88
		c0,6.827-0.853,12.8-2.56,19.627C64.64,334.117,61.227,336.677,57.813,336.677z M27.947,319.611h23.04
		c0.853-2.56,0.853-5.973,0.853-8.533c0-13.653-5.973-27.307-15.36-36.693C32.213,293.157,29.653,309.371,27.947,319.611z"/>
</g>
</svg>